<svg version="1.1" id="Layer_1" xmlns="http://www.w3.org/2000/svg" xmlns:xlink="http://www.w3.org/1999/xlink" x="0px" y="0px"
	 width="100%" viewBox="0 0 234 235" enable-background="new 0 0 234 235" xml:space="preserve">
<path fill="#100F0D" opacity="1.000000" stroke="none" 
	d="
M235.000000,103.000000 
	C235.000000,112.687561 235.000000,122.375122 234.611969,132.681717 
	C233.008301,145.407333 229.622681,156.959274 224.526901,167.926804 
	C216.076721,186.113907 204.114319,201.643082 187.864304,213.584686 
	C175.068329,222.988007 161.219131,230.215179 145.361694,233.043121 
	C140.874725,233.843307 136.452118,235.004425 132.000000,236.000000 
	C121.645775,236.000000 111.291542,236.000000 100.320808,235.606003 
	C97.883492,235.138504 96.003319,235.335434 94.250809,234.950775 
	C69.702637,229.562439 48.511875,218.512756 31.638552,199.326401 
	C19.687243,185.736725 11.421718,170.345871 6.060091,153.278580 
	C3.975842,146.643936 2.663800,139.766724 1.000000,133.000000 
	C1.000000,122.312439 1.000000,111.624878 1.388381,100.317795 
	C2.229528,96.320564 2.319443,92.845741 3.193153,89.580673 
	C9.503611,65.998360 20.454380,45.288086 39.828022,29.562584 
	C51.341202,20.217386 63.913532,12.911750 77.847870,8.061765 
	C85.759430,5.308066 93.940376,3.328306 102.000000,1.000000 
	C111.687561,1.000000 121.375122,1.000000 131.682083,1.392622 
	C134.123901,1.859717 136.003464,1.669615 137.760025,2.048978 
	C158.800919,6.593134 178.106445,14.986919 194.499710,29.114656 
	C211.308640,43.600632 223.479813,61.375336 229.955948,82.743797 
	C231.971588,89.394554 233.336945,96.242386 235.000000,103.000000 
M83.148933,16.993687 
	C64.351219,23.328911 48.768715,34.313816 34.999874,49.915848 
	C44.738365,53.857998 53.664917,57.471474 63.106117,61.293282 
	C67.970001,45.139244 74.360641,30.343069 85.206802,17.211906 
	C85.344383,16.875124 85.481964,16.538342 85.619537,16.201557 
	C85.054733,16.441006 84.489929,16.680454 83.148933,16.993687 
M41.483730,64.050591 
	C37.447330,62.128582 33.410934,60.206573 29.157726,58.181328 
	C17.516129,74.804245 11.719003,93.463608 10.338490,114.107849 
	C19.045713,114.107849 27.953728,114.107849 36.678009,114.107849 
	C36.678009,117.702461 36.678009,120.776276 36.678009,124.066299 
	C27.725882,124.066299 19.092997,124.066299 10.626663,124.066299 
	C11.543965,144.510513 17.840260,162.831192 28.880091,178.551804 
	C40.095123,174.041321 50.296276,169.938614 60.486313,165.839890 
	C59.555256,160.385239 58.624203,154.930603 57.611927,149.000122 
	C59.664795,149.000122 60.985111,149.129608 62.271877,148.976746 
	C66.812248,148.437378 69.300392,149.655121 69.152084,154.963821 
	C69.067703,157.984283 70.500282,161.047134 71.202637,163.899612 
	C102.225746,157.664932 132.643600,157.520172 163.315674,163.850174 
	C164.341446,158.608780 165.281891,153.803406 166.184875,149.189453 
	C169.707642,149.189453 172.663086,149.189453 176.343857,149.189453 
	C175.469040,155.172928 174.635406,160.874634 173.905670,165.865845 
	C185.057343,170.419189 195.595535,174.722031 206.246307,179.070831 
	C220.080200,159.477982 224.461456,136.782669 224.478836,123.851181 
	C215.397369,123.851181 206.309814,123.851181 197.283508,123.851181 
	C197.283508,120.371147 197.283508,117.298737 197.283508,113.868805 
	C206.660919,113.868805 215.761139,113.868805 224.852478,113.868805 
	C224.672745,95.994431 214.574341,65.899178 204.877762,58.173862 
	C202.873077,59.327011 201.036682,60.686375 198.985062,61.508888 
	C191.699066,64.429916 184.438965,67.486313 176.959320,69.818909 
	C173.956161,70.755478 173.710983,72.334457 174.048248,74.499466 
	C175.343689,82.815491 176.807175,91.105331 178.262436,99.727463 
	C174.360718,99.727463 170.810852,99.727463 167.538635,99.727463 
	C166.262283,90.992188 165.025238,82.525864 163.767731,73.919556 
	C161.706573,74.044090 160.059921,74.054680 158.436966,74.256195 
	C148.582214,75.479836 138.762314,77.421494 128.875305,77.853371 
	C110.628586,78.650414 92.401031,77.862404 74.420937,74.048920 
	C71.857643,73.505249 70.092621,74.207497 69.885422,77.601852 
	C69.654350,81.387009 68.543640,85.118462 67.845993,88.717575 
	C64.318039,88.717575 61.224182,88.717575 57.638687,88.717575 
	C58.607658,82.694923 59.520332,77.022163 60.466042,71.144081 
	C54.390141,68.986694 48.219685,66.795731 41.483730,64.050591 
M121.999649,61.397499 
	C121.999649,63.525406 121.999649,65.653313 121.999649,67.984474 
	C128.732300,67.292488 135.019440,66.672295 141.300232,65.993416 
	C147.538498,65.319115 153.770401,64.585754 160.045410,63.873730 
	C155.693329,42.094303 139.871567,14.463944 121.999649,12.509750 
	C121.999649,28.492094 121.999649,44.455173 121.999649,61.397499 
M121.999649,185.503448 
	C121.999649,198.841110 121.999649,212.178757 121.999649,225.905060 
	C146.380692,216.791046 152.647446,194.880157 161.210770,173.454575 
	C147.996765,172.047546 135.169922,170.681747 121.999649,169.279373 
	C121.999649,175.239868 121.999649,179.872406 121.999649,185.503448 
M87.778793,65.997383 
	C95.725464,66.573868 103.672127,67.150345 112.000137,67.754494 
	C112.000137,58.388004 112.000130,49.091427 112.000130,39.794846 
	C112.000130,30.571930 112.000137,21.349014 112.000137,12.032019 
	C93.212639,15.175811 75.835648,48.446110 74.460869,63.638504 
	C78.597961,64.414566 82.728317,65.189369 87.778793,65.997383 
M109.341179,170.000214 
	C97.392662,170.372726 85.506783,171.189301 73.437263,174.338486 
	C81.316238,195.555313 88.247025,216.392029 111.998177,225.647476 
	C111.998177,207.240280 112.020020,189.784500 111.926155,172.329346 
	C111.921974,171.552063 110.864944,170.780441 109.341179,170.000214 
M194.007889,43.511677 
	C181.280579,30.304123 166.082458,21.260639 148.457962,16.183941 
	C160.138718,29.102051 165.792221,44.971050 171.381882,61.198959 
	C180.907715,57.326069 190.059128,53.605396 199.210556,49.884727 
	C199.551529,49.234020 199.892517,48.583317 200.233490,47.932610 
	C198.329071,46.626057 196.424637,45.319504 194.007889,43.511677 
M164.607193,194.948883 
	C159.656082,203.601624 154.704971,212.254364 149.510284,221.332809 
	C169.249954,214.844788 185.665009,204.072601 199.600021,187.635147 
	C190.636887,184.056595 182.201538,180.590820 173.654984,177.425278 
	C172.783081,177.102325 170.522110,178.295914 170.135757,179.272415 
	C168.195175,184.177155 166.663635,189.243713 164.607193,194.948883 
M55.479057,205.984741 
	C64.540436,212.885071 74.500443,217.926941 86.585617,221.496323 
	C74.533493,208.011078 68.316429,192.973312 63.239422,176.141205 
	C53.997276,179.820969 44.892036,183.446228 34.215984,187.696915 
	C41.866215,194.232773 48.425423,199.836548 55.479057,205.984741 
z"/>
<path fill="#FFFFFF" opacity="1.000000" stroke="none" 
	d="
M235.000000,102.531342 
	C233.336945,96.242386 231.971588,89.394554 229.955948,82.743797 
	C223.479813,61.375336 211.308640,43.600632 194.499710,29.114656 
	C178.106445,14.986919 158.800919,6.593134 137.760025,2.048978 
	C136.003464,1.669615 134.123901,1.859717 132.150742,1.392622 
	C166.259918,1.000000 200.519821,1.000000 235.000000,1.000000 
	C235.000000,34.687241 235.000000,68.374962 235.000000,102.531342 
z"/>
<path fill="#FFFFFF" opacity="1.000000" stroke="none" 
	d="
M132.468658,236.000000 
	C136.452118,235.004425 140.874725,233.843307 145.361694,233.043121 
	C161.219131,230.215179 175.068329,222.988007 187.864304,213.584686 
	C204.114319,201.643082 216.076721,186.113907 224.526901,167.926804 
	C229.622681,156.959274 233.008301,145.407333 234.611969,133.150375 
	C235.000000,167.260269 235.000000,201.520538 235.000000,236.000000 
	C200.979416,236.000000 166.958374,236.000000 132.468658,236.000000 
z"/>
<path fill="#FFFFFF" opacity="1.000000" stroke="none" 
	d="
M1.000000,133.468658 
	C2.663800,139.766724 3.975842,146.643936 6.060091,153.278580 
	C11.421718,170.345871 19.687243,185.736725 31.638552,199.326401 
	C48.511875,218.512756 69.702637,229.562439 94.250809,234.950775 
	C96.003319,235.335434 97.883492,235.138504 99.852150,235.606003 
	C67.071617,236.000000 34.143234,236.000000 1.000000,236.000000 
	C1.000000,201.979401 1.000000,167.958359 1.000000,133.468658 
z"/>
<path fill="#FFFFFF" opacity="1.000000" stroke="none" 
	d="
M101.531342,1.000000 
	C93.940376,3.328306 85.759430,5.308066 77.847870,8.061765 
	C63.913532,12.911750 51.341202,20.217386 39.828022,29.562584 
	C20.454380,45.288086 9.503611,65.998360 3.193153,89.580673 
	C2.319443,92.845741 2.229528,96.320564 1.388381,99.849136 
	C1.000000,67.072334 1.000000,34.144665 1.000000,1.000000 
	C34.353912,1.000000 67.708298,1.000000 101.531342,1.000000 
z"/>
<path fill="#FFFFFF" opacity="1.000000" stroke="none" 
	d="
M41.766479,64.327682 
	C48.219685,66.795731 54.390141,68.986694 60.466042,71.144081 
	C59.520332,77.022163 58.607658,82.694923 57.638687,88.717575 
	C61.224182,88.717575 64.318039,88.717575 67.845993,88.717575 
	C68.543640,85.118462 69.654350,81.387009 69.885422,77.601852 
	C70.092621,74.207497 71.857643,73.505249 74.420937,74.048920 
	C92.401031,77.862404 110.628586,78.650414 128.875305,77.853371 
	C138.762314,77.421494 148.582214,75.479836 158.436966,74.256195 
	C160.059921,74.054680 161.706573,74.044090 163.767731,73.919556 
	C165.025238,82.525864 166.262283,90.992188 167.538635,99.727463 
	C170.810852,99.727463 174.360718,99.727463 178.262436,99.727463 
	C176.807175,91.105331 175.343689,82.815491 174.048248,74.499466 
	C173.710983,72.334457 173.956161,70.755478 176.959320,69.818909 
	C184.438965,67.486313 191.699066,64.429916 198.985062,61.508888 
	C201.036682,60.686375 202.873077,59.327011 204.877762,58.173862 
	C214.574341,65.899178 224.672745,95.994431 224.852478,113.868805 
	C215.761139,113.868805 206.660919,113.868805 197.283508,113.868805 
	C197.283508,117.298737 197.283508,120.371147 197.283508,123.851181 
	C206.309814,123.851181 215.397369,123.851181 224.478836,123.851181 
	C224.461456,136.782669 220.080200,159.477982 206.246307,179.070831 
	C195.595535,174.722031 185.057343,170.419189 173.905670,165.865845 
	C174.635406,160.874634 175.469040,155.172928 176.343857,149.189453 
	C172.663086,149.189453 169.707642,149.189453 166.184875,149.189453 
	C165.281891,153.803406 164.341446,158.608780 163.315674,163.850174 
	C132.643600,157.520172 102.225746,157.664932 71.202637,163.899612 
	C70.500282,161.047134 69.067703,157.984283 69.152084,154.963821 
	C69.300392,149.655121 66.812248,148.437378 62.271877,148.976746 
	C60.985111,149.129608 59.664795,149.000122 57.611927,149.000122 
	C58.624203,154.930603 59.555256,160.385239 60.491871,165.837891 
	C50.296276,169.938614 40.095123,174.041321 28.880091,178.551804 
	C17.840260,162.831192 11.543965,144.510513 10.626663,124.066299 
	C19.092997,124.066299 27.725882,124.066299 36.678009,124.066299 
	C36.678009,120.776276 36.678009,117.702461 36.678009,114.107849 
	C27.953728,114.107849 19.045713,114.107849 10.338490,114.107849 
	C11.719003,93.463608 17.516129,74.804245 29.157726,58.181328 
	C33.410934,60.206573 37.447330,62.128582 41.766479,64.327682 
M108.000153,107.550972 
	C108.000153,117.961845 108.000153,128.372726 108.000153,138.623566 
	C112.743759,138.623566 116.802078,138.623566 121.162025,138.623566 
	C121.162025,134.970642 121.162025,131.690430 121.162025,127.632805 
	C125.543785,128.072388 130.202606,127.365196 133.374786,129.211807 
	C136.152420,130.828735 137.259857,135.314758 139.372620,139.000000 
	C142.491974,139.000000 146.310043,138.939896 150.125565,139.012711 
	C157.698578,139.157227 165.792694,140.676880 169.150909,129.721573 
	C174.517471,138.773636 181.429672,140.711258 190.512589,138.205246 
	C186.128647,133.188858 182.078751,128.554718 178.450958,124.403564 
	C182.043915,120.177254 186.024063,115.495522 190.347260,110.410286 
	C181.548843,109.329308 174.062027,108.846443 169.448029,118.017014 
	C165.198120,109.034805 157.923965,109.482826 150.616486,110.132294 
	C148.484894,102.370811 143.139709,99.937889 135.804520,99.842537 
	C126.636490,99.723351 117.475624,99.053581 108.000153,98.606819 
	C108.000153,101.955536 108.000153,104.262947 108.000153,107.550972 
M51.530243,98.998917 
	C49.773582,98.998917 48.016918,98.998917 46.357887,98.998917 
	C46.357887,112.717667 46.357887,125.762436 46.357887,138.621002 
	C59.436253,138.621002 72.153786,138.621002 84.756577,138.621002 
	C84.756577,134.964203 84.756577,131.688232 84.756577,127.936584 
	C75.799477,127.936584 67.075394,127.936584 58.000000,127.936584 
	C58.000000,122.827759 58.000000,118.199883 58.000000,113.571999 
	C58.000000,108.809082 58.000000,104.046165 58.000000,98.998917 
	C55.752998,98.998917 54.114151,98.998917 51.530243,98.998917 
M90.429543,114.123512 
	C95.522675,111.618736 96.105118,107.046570 96.012611,102.107918 
	C95.908943,96.572823 91.618942,90.959259 86.671349,90.026955 
	C79.606674,88.695732 73.087059,91.923141 70.982300,97.803215 
	C68.850510,103.758865 69.745369,108.907257 74.698143,113.247177 
	C79.483681,117.440590 84.567986,116.579529 90.429543,114.123512 
z"/>
<path fill="#FFFFFF" opacity="1.000000" stroke="none" 
	d="
M121.999649,60.907875 
	C121.999649,44.455173 121.999649,28.492094 121.999649,12.509750 
	C139.871567,14.463944 155.693329,42.094303 160.045410,63.873730 
	C153.770401,64.585754 147.538498,65.319115 141.300232,65.993416 
	C135.019440,66.672295 128.732300,67.292488 121.999649,67.984474 
	C121.999649,65.653313 121.999649,63.525406 121.999649,60.907875 
z"/>
<path fill="#FFFFFF" opacity="1.000000" stroke="none" 
	d="
M121.999649,185.004196 
	C121.999649,179.872406 121.999649,175.239868 121.999649,169.279373 
	C135.169922,170.681747 147.996765,172.047546 161.210770,173.454575 
	C152.647446,194.880157 146.380692,216.791046 121.999649,225.905060 
	C121.999649,212.178757 121.999649,198.841110 121.999649,185.004196 
z"/>
<path fill="#FFFFFF" opacity="1.000000" stroke="none" 
	d="
M87.318741,65.980774 
	C82.728317,65.189369 78.597961,64.414566 74.460869,63.638504 
	C75.835648,48.446110 93.212639,15.175811 112.000137,12.032019 
	C112.000137,21.349014 112.000130,30.571930 112.000130,39.794846 
	C112.000130,49.091427 112.000137,58.388004 112.000137,67.754494 
	C103.672127,67.150345 95.725464,66.573868 87.318741,65.980774 
z"/>
<path fill="#FFFFFF" opacity="1.000000" stroke="none" 
	d="
M109.819748,170.003204 
	C110.864944,170.780441 111.921974,171.552063 111.926155,172.329346 
	C112.020020,189.784500 111.998177,207.240280 111.998177,225.647476 
	C88.247025,216.392029 81.316238,195.555313 73.437263,174.338486 
	C85.506783,171.189301 97.392662,170.372726 109.819748,170.003204 
z"/>
<path fill="#FFFFFF" opacity="1.000000" stroke="none" 
	d="
M194.264053,43.762314 
	C196.424637,45.319504 198.329071,46.626057 200.233490,47.932610 
	C199.892517,48.583317 199.551529,49.234020 199.210556,49.884727 
	C190.059128,53.605396 180.907715,57.326069 171.381882,61.198959 
	C165.792221,44.971050 160.138718,29.102051 148.457962,16.183941 
	C166.082458,21.260639 181.280579,30.304123 194.264053,43.762314 
z"/>
<path fill="#FFFFFF" opacity="1.000000" stroke="none" 
	d="
M164.797791,194.601166 
	C166.663635,189.243713 168.195175,184.177155 170.135757,179.272415 
	C170.522110,178.295914 172.783081,177.102325 173.654984,177.425278 
	C182.201538,180.590820 190.636887,184.056595 199.600021,187.635147 
	C185.665009,204.072601 169.249954,214.844788 149.510284,221.332809 
	C154.704971,212.254364 159.656082,203.601624 164.797791,194.601166 
z"/>
<path fill="#FFFFFF" opacity="1.000000" stroke="none" 
	d="
M55.231842,205.712524 
	C48.425423,199.836548 41.866215,194.232773 34.215984,187.696915 
	C44.892036,183.446228 53.997276,179.820969 63.239422,176.141205 
	C68.316429,192.973312 74.533493,208.011078 86.585617,221.496323 
	C74.500443,217.926941 64.540436,212.885071 55.231842,205.712524 
z"/>
<path fill="#FFFFFF" opacity="1.000000" stroke="none" 
	d="
M84.762192,17.596706 
	C74.360641,30.343069 67.970001,45.139244 63.106117,61.293282 
	C53.664917,57.471474 44.738365,53.857998 34.999874,49.915848 
	C48.768715,34.313816 64.351219,23.328911 83.740295,17.133415 
	C84.475166,17.380999 84.618675,17.488852 84.762192,17.596706 
z"/>
<path fill="#FFFFFF" opacity="1.000000" stroke="none" 
	d="
M84.128387,17.096523 
	C84.489929,16.680454 85.054733,16.441006 85.619537,16.201557 
	C85.481964,16.538342 85.344383,16.875124 84.984497,17.404306 
	C84.618675,17.488852 84.475166,17.380999 84.128387,17.096523 
z"/>
<path fill="#D50E6E" opacity="1.000000" stroke="none" 
	d="
M108.000153,107.060669 
	C108.000153,104.262947 108.000153,101.955536 108.000153,98.606819 
	C117.475624,99.053581 126.636490,99.723351 135.804520,99.842537 
	C143.139709,99.937889 148.484894,102.370811 150.616486,110.132294 
	C157.923965,109.482826 165.198120,109.034805 169.448029,118.017014 
	C174.062027,108.846443 181.548843,109.329308 190.347260,110.410286 
	C186.024063,115.495522 182.043915,120.177254 178.450958,124.403564 
	C182.078751,128.554718 186.128647,133.188858 190.512589,138.205246 
	C181.429672,140.711258 174.517471,138.773636 169.150909,129.721573 
	C165.792694,140.676880 157.698578,139.157227 150.125565,139.012711 
	C146.310043,138.939896 142.491974,139.000000 139.372620,139.000000 
	C137.259857,135.314758 136.152420,130.828735 133.374786,129.211807 
	C130.202606,127.365196 125.543785,128.072388 121.162025,127.632805 
	C121.162025,131.690430 121.162025,134.970642 121.162025,138.623566 
	C116.802078,138.623566 112.743759,138.623566 108.000153,138.623566 
	C108.000153,128.372726 108.000153,117.961845 108.000153,107.060669 
M161.373016,124.999916 
	C161.688736,124.928001 162.010315,124.874184 162.317032,124.774544 
	C162.426910,124.738853 162.500854,124.592545 162.591187,124.496727 
	C159.661682,121.763489 156.688568,119.074814 153.825531,116.273651 
	C152.776337,115.247139 151.987961,113.954041 150.319290,111.799606 
	C150.045486,119.032799 146.733475,122.599396 140.721695,124.477875 
	C147.115555,125.969391 149.921646,129.789841 150.336700,136.129639 
	C154.010529,132.190338 157.337967,128.622452 161.373016,124.999916 
M121.132362,117.259048 
	C125.505844,117.462807 129.901901,117.984718 134.239090,117.676933 
	C135.544556,117.584297 136.686295,115.184204 137.903030,113.841148 
	C136.477890,112.561775 135.170471,110.383804 133.604614,110.178665 
	C129.589127,109.652611 125.458817,110.003021 121.019302,110.003021 
	C121.019302,112.433975 121.019302,114.380775 121.132362,117.259048 
z"/>
<path fill="#D50E6E" opacity="1.000000" stroke="none" 
	d="
M52.002773,98.998917 
	C54.114151,98.998917 55.752998,98.998917 58.000000,98.998917 
	C58.000000,104.046165 58.000000,108.809082 58.000000,113.571999 
	C58.000000,118.199883 58.000000,122.827759 58.000000,127.936584 
	C67.075394,127.936584 75.799477,127.936584 84.756577,127.936584 
	C84.756577,131.688232 84.756577,134.964203 84.756577,138.621002 
	C72.153786,138.621002 59.436253,138.621002 46.357887,138.621002 
	C46.357887,125.762436 46.357887,112.717667 46.357887,98.998917 
	C48.016918,98.998917 49.773582,98.998917 52.002773,98.998917 
z"/>
<path fill="#D50E6E" opacity="1.000000" stroke="none" 
	d="
M90.131607,114.391296 
	C84.567986,116.579529 79.483681,117.440590 74.698143,113.247177 
	C69.745369,108.907257 68.850510,103.758865 70.982300,97.803215 
	C73.087059,91.923141 79.606674,88.695732 86.671349,90.026955 
	C91.618942,90.959259 95.908943,96.572823 96.012611,102.107918 
	C96.105118,107.046570 95.522675,111.618736 90.131607,114.391296 
M82.866760,105.945290 
	C83.908058,104.842270 85.175484,103.858833 85.858894,102.566551 
	C86.076309,102.155441 84.734055,100.215378 84.116508,100.220833 
	C83.003960,100.230675 81.114822,101.030251 80.972672,101.772415 
	C80.749420,102.938042 81.706337,104.329704 82.866760,105.945290 
z"/>
<path fill="#FFFFFF" opacity="1.000000" stroke="none" 
	d="
M161.019211,125.027237 
	C157.337967,128.622452 154.010529,132.190338 150.336700,136.129639 
	C149.921646,129.789841 147.115555,125.969391 140.721695,124.477875 
	C146.733475,122.599396 150.045486,119.032799 150.319290,111.799606 
	C151.987961,113.954041 152.776337,115.247139 153.825531,116.273651 
	C156.688568,119.074814 159.661682,121.763489 162.591187,124.496727 
	C162.500854,124.592545 162.426910,124.738853 162.317032,124.774544 
	C162.010315,124.874184 161.688736,124.928001 161.019211,125.027237 
z"/>
<path fill="#FFFFFF" opacity="1.000000" stroke="none" 
	d="
M121.075836,116.793304 
	C121.019302,114.380775 121.019302,112.433975 121.019302,110.003021 
	C125.458817,110.003021 129.589127,109.652611 133.604614,110.178665 
	C135.170471,110.383804 136.477890,112.561775 137.903030,113.841148 
	C136.686295,115.184204 135.544556,117.584297 134.239090,117.676933 
	C129.901901,117.984718 125.505844,117.462807 121.075836,116.793304 
z"/>
<path fill="#FFFFFF" opacity="1.000000" stroke="none" 
	d="
M82.515121,105.785469 
	C81.706337,104.329704 80.749420,102.938042 80.972672,101.772415 
	C81.114822,101.030251 83.003960,100.230675 84.116508,100.220833 
	C84.734055,100.215378 86.076309,102.155441 85.858894,102.566551 
	C85.175484,103.858833 83.908058,104.842270 82.515121,105.785469 
z"/>
</svg>